<svg xmlns="http://www.w3.org/2000/svg"><symbol id="brachiosaurus" viewBox="0 0 256 256"><path d="M58.6 166.8a32.7 32.7 0 0 0-7.8.9c0 .3.3.6.8 1l2 1a16.9 16.9 0 0 0 2.7 1c.9.4 1.9.6 2.8.9l2.4.6 1.5.2h2.1l2.6-.4a11.7 11.7 0 0 0 2.4-.9 4.1 4.1 0 0 0 1.7-1.5 29.3 29.3 0 0 0-6.5-2.2 29.9 29.9 0 0 0-6.7-.6z"/><path d="M128-.5a128 128 0 1 0 128 128A128 128 0 0 0 128-.5zm83.5 70.6v.3a8.2 8.2 0 0 1-.1 1.4 14.6 14.6 0 0 0-.3 2.2 15.5 15.5 0 0 0-.4 2.1c-.1.6-.2 1.1-.2 1.3a6.6 6.6 0 0 0-.9 1.9 14.6 14.6 0 0 0-.7 1.9l-.6 2.1a14.6 14.6 0 0 1-.7 1.9 22.7 22.7 0 0 1-1.7 3.1 22.5 22.5 0 0 0-1.6 3.1l-20.1 27.9-.2.5-.3.3-.3.3-.4.5-1.7 2.3c-.7.9-1.4 1.8-2.1 2.9l-2.2 3.2c-.7 1.1-1.4 2.2-2 3.3s-1 2.1-1.4 3a8 8 0 0 0-.5 2.3c0 .3-.2.6-.2.8s.2.4.2.7c-.2 0-.3.1-.3.4s.1.4.3.4v10.2a1.9 1.9 0 0 1-.3 1l-.3 1.2a6.7 6.7 0 0 0-.6 1.2 3.1 3.1 0 0 0-.5 1.2v1.6a.8.8 0 0 1 0 .5c-.2.2-.2.5-.4.7s-.6.6-.7.9l-.6.4v.4c0 .1.7.2.8.4s.9.3.9.4v2.9a21.4 21.4 0 0 1-.6 3.5c-.2 1.2-.6 2.4-.8 3.5s-.5 2.4-.7 3.6-.3 2.3-.3 3.5.1 4.3.3 6.4a44.8 44.8 0 0 0 1.1 6.2 23.2 23.2 0 0 0 2.2 5.7 19.9 19.9 0 0 0 3.4 5.3 3.2 3.2 0 0 1-1.3.8l-1.7.7-1.7.5h-1.9l-1.1-.3-1.2-.2-.9-.3h-.8l-.8-.3-.6-.5a1.5 1.5 0 0 1-.3-.7 27.7 27.7 0 0 0 .1-4.1 32.2 32.2 0 0 0-.3-4.3c-.1-1.4-.3-2.8-.5-4.3s-.4-2.8-.5-4.1-.1-.3-.2-.6l-.3-.6c.1-1.1.1-2.4.2-3.7s-.1-2.7-.2-4.1a27.6 27.6 0 0 0-.6-4 11.6 11.6 0 0 0-1.4-3.4 4.5 4.5 0 0 0-1.5 1.8 19.1 19.1 0 0 0-.7 2.8c-.3.9-.2 1.9-.5 2.9s-.9 1.7-.9 2.3v7.6c0 2.9-.2 5.7-.1 8.4a77.2 77.2 0 0 0 .6 8.2l.4.4.8.6.8.7a.9.9 0 0 1 .3.6c0 .2-.2.5-.8.8l-1.8.9-2.1.8-1.3.4h-.2l-4.7-2.6a.5.5 0 0 1-.3-.5v-.6a14.5 14.5 0 0 1 .1-3 28.1 28.1 0 0 0 .1-3c0-1.3-.2-2.6-.3-3.8l-.6-3.8-.6-3.8a23.8 23.8 0 0 1-.3-3.9c0-1.2.1-2.3.1-3.3a23.6 23.6 0 0 1 .4-2.8c.2-1 .3-1.9.5-2.9s.4-2 .7-3.2a2 2 0 0 0-.1-.7 5.6 5.6 0 0 0-.1-.7 6.5 6.5 0 0 0-1.9.2l-1.8.5-2 .6-1.9.5-1.4.2-1 .2h-1l-1.1-.2h-7.1a46.1 46.1 0 0 0-5.3-.2h-2.5a3.5 3.5 0 0 0-2.3.9v5.2c-.1 1.7-.1 3.4-.2 5.1l-.3 5.2c0 1.7-.1 3.4-.1 5.2v5.1c0 .6.7 1.1 1.1 1.7l1.4 1.7a9.4 9.4 0 0 1 1.2 1.8 3.2 3.2 0 0 1 .6 1.8v.2a.3.3 0 0 0-.1.2 9.3 9.3 0 0 1-4.1.4c.1.5 0 .7-.2.8h-2.7l-2.3-.2a5.1 5.1 0 0 1-1.8-.9 2.3 2.3 0 0 1-.8-1.9c0-.4.1-.8.1-1.3a9.3 9.3 0 0 1 .4-1.3l.3-1.3a6.1 6.1 0 0 0 .1-1.4 23.4 23.4 0 0 0-.3-3.8c-.1-1.3-.4-2.5-.6-3.7l-.9-3.8a29.6 29.6 0 0 1-.7-4h-.4c-.2 0-.4.7-.5.9a2.5 2.5 0 0 0-.4.7l-.4.5-1.5 2.3c-.6.8-1 1.5-1.5 2.3a18.9 18.9 0 0 0-1.1 2.5 7.7 7.7 0 0 0-.4 2.7 4.5 4.5 0 0 0 .3 1.6 10.2 10.2 0 0 0 .8 1.5 6.3 6.3 0 0 0 .7 1.2 1.5 1.5 0 0 1 .3.6.8.8 0 0 1-.4.7l-1 .5-1.3.3h-2.7l-1.7-.2a1.8 1.8 0 0 1-1.1-.4 2.2 2.2 0 0 1-.7-.9 4.3 4.3 0 0 1-.5-1.6l-.6-1.6a8.8 8.8 0 0 1-.2-1.7 3.4 3.4 0 0 1 .4-1.5l.9-1.6 1.1-1.6a7 7 0 0 0 .8-1.4c.9-2 1.7-4 2.5-6s1.6-3.9 2.5-5.9c.1-.3.3-.5.4-.8l.6-.7a2.5 2.5 0 0 0 .4-.7 2.9 2.9 0 0 0 .2-.9.6.6 0 0 0-.3-.6h-1.3l-9.1 2.5a3.2 3.2 0 0 1-1.3.5l-1.8.4a4.4 4.4 0 0 0-1.6.6 1.2 1.2 0 0 0-.7 1 1.2 1.2 0 0 0 .3.9l.6.7.9.6a1.3 1.3 0 0 1 .7.6l-.4.4-1.3-.8a6.7 6.7 0 0 0-1.4-.9l-1.5-.6a3.9 3.9 0 0 0-1.5-.2 12.8 12.8 0 0 0-3.8.5l-4 1.1a31.7 31.7 0 0 1-4.1 1.2 21 21 0 0 1-4.3.5 18.5 18.5 0 0 1-3.5-.4 37 37 0 0 1-4.9-1.1l-5.5-1.8a32.9 32.9 0 0 1-5-2.3 15.4 15.4 0 0 1-3.7-2.7 3.9 3.9 0 0 1-1.4-3 4 4 0 0 1 1.1-3.2 5.7 5.7 0 0 1 2.8-1.7 13.3 13.3 0 0 1 3.5-.1 31.1 31.1 0 0 1 3.3.3h4c.2 0 .6-.4 1.3-.3a23.2 23.2 0 0 1 2.4.2l2.6.3 1.9.3 2 .5 1.8.9 1.8.7a4.9 4.9 0 0 0 2.1.4 9.3 9.3 0 0 0 4-1.1A25.7 25.7 0 0 0 83 164a40.8 40.8 0 0 0 3.9-3.1l3.3-2.8 1.9-1.2 1.9-1.1a10.9 10.9 0 0 0 1.7-1.3 5 5 0 0 0 1.5-1.7 33.5 33.5 0 0 0 2.7-4.5 20.7 20.7 0 0 1 2.7-4.5l1.3-1.3 1.5-1 1.7-.9 1.6-.9a24.2 24.2 0 0 0 3.6-2.7l3.5-2.9 3.4-3 3.5-2.9a17.9 17.9 0 0 1 3.8-2.2l3.9-1.9 2.5-1.3 2.5-1.3 2.6-1.2a13.4 13.4 0 0 1 2.7-.7l22.6-3.3a12.8 12.8 0 0 0 3.5-1.1 18.5 18.5 0 0 0 3.4-2.3 28 28 0 0 0 3.2-2.9c1-1 2-2.1 2.9-3.2a39.2 39.2 0 0 0 2.7-3.3l2.3-2.8 7.8-9 .3-.3.6-.6.5-.5.3-.3 2-3.2.3-.2.4-.2.3-.3.3-.2.4-.4.4-.4 1.2-1.7 1.4-2 1.3-2 1-1.7a11.9 11.9 0 0 0 .8-2 18.7 18.7 0 0 0 .7-2.2c.3-.7.5-1.4.8-2.2s1-1.5 1-2.2v-6A5.1 5.1 0 0 0 202 60a13.3 13.3 0 0 0-2.6-2.7 15.9 15.9 0 0 0-3.4-1.8 8.4 8.4 0 0 0-3.2-.7 22.7 22.7 0 0 0-5.9.7 11.8 11.8 0 0 0-5.2 2.7l-1.4 1.4c-.5.6-1.1 1.2-1.6 1.9l-1.8 2a10.7 10.7 0 0 1-1.9 1.8 11 11 0 0 1-1.8 1.4 4.1 4.1 0 0 1-1.8.5 1.6 1.6 0 0 1-1.1-.5 1.4 1.4 0 0 1-.6-1.1v-.5l.2-.5c0-.2.1-.5.1-.7s.1-.6.2-.8v-.5a4.7 4.7 0 0 0-.2-1.7l-.6-1.3-.6-1.2a2.8 2.8 0 0 1-.3-1.3l.9-.2a1.6 1.6 0 0 0 .4-.7l.5-.7a1 1 0 0 1 .8-.6c0-.1.2-.1.5-.1h2.3a1.1 1.1 0 0 0 1-.4l.7-.6a.1.1 0 0 1 .2 0h.2a.5.5 0 0 1 .2.4c.1.2.2.3.2.4a.8.8 0 0 1 .4-.4l.7-.3 1.1-.7 1.3-.8 1.4-.8 1.1-.7.6-.4 2.1-1.2 1.8-.7 1.9-.2h6.5l1.5.5 1.5.3 1.6.3 1.5.5a13.8 13.8 0 0 1 4.6 3 17 17 0 0 1 3.3 4.2 21.8 21.8 0 0 1 1.7 5.1 25 25 0 0 1 .5 5.5v2.3z"/></symbol><symbol id="micropachycephalosaurus" viewBox="0 0 256 256"><path d="M132.9 151.4c-.3 0-.4.2-.4.6h-.1a.5.5 0 0 0-.5.5c0 .4.2.6.5.6s.4-.2.4-.6h.1a.5.5 0 0 0 .5-.5c0-.4-.2-.6-.5-.6zm1.5-.8a2.4 2.4 0 0 0-.9.8h.3a2.3 2.3 0 0 0 1.1-.3 2.4 2.4 0 0 0 .9-.8h-.3a2 2 0 0 0-1.1.3zm3-2.6c-.3 0-.4.2-.4.6h-.1a.5.5 0 0 0-.5.5h-.1c-.3 0-.5.2-.5.6s.2.6.5.6.5-.2.5-.6h.1c.3 0 .4-.2.4-.6h.1c.4 0 .5-.1.5-.5s-.1-.6-.5-.6zm23.3-5.9a8.7 8.7 0 0 1-1.2 1.4 2 2 0 0 0 .8 1.1h1.1a2.3 2.3 0 0 0 1.4-.4 6.9 6.9 0 0 0 1.1-1.3l.8-1.4c.2-.6.3-1.2.5-1.2h-3.5c-.2.1-.5 1.2-1 1.8z"/><path d="M128.3.5A127.7 127.7 0 1 0 256 128.2 127.6 127.6 0 0 0 128.3.5zm95.8 75.7a4.2 4.2 0 0 1-1.6.4h-3.7l-5.2 1.4a18.6 18.6 0 0 0-3.7 1.6 10.7 10.7 0 0 0-2.5 2.2 10.9 10.9 0 0 0-1.8 3 40.4 40.4 0 0 0-1.5 3.9l-1.6 5.1-1.2 3.4c-.4 1.1-.9 2.2-1.3 3.2a22 22 0 0 1-1.5 3.1c-.5 1.1-1.1 2.2-1.7 3.3a29 29 0 0 1-2.7 4.1c-.9 1.2-1.9 2.5-3 3.7l-3.1 3.5c-1 1.2-2.1 2.5-3.1 3.9a11.6 11.6 0 0 0-1.4 2.7 18.6 18.6 0 0 1-1 2.5 7.6 7.6 0 0 1-1.3 2.3 6.7 6.7 0 0 1-2.5 1.6l-1.3.5-2.1.7-2 .6-1.4.4a3.3 3.3 0 0 1 .2 2.1 2 2 0 0 1-.9.9l-1.2.6a2 2 0 0 0-.9.9l-2.3 6.8a2.5 2.5 0 0 1-1 1.5 6.1 6.1 0 0 1-1.8.9 13.6 13.6 0 0 1-2 .2l-1.9-.2h-.8c-.5 0-.9.2-1.2.1s-.4-.3-.4-.9v-.3c.1-.2.2-.2.3-.3l.2-.3c.1-.1.1-.2.1-.4v-.2a28.1 28.1 0 0 0-3.5 1.7l-3.4 2-3.3 2.2a23.3 23.3 0 0 1-3.4 2l-.9.5-1.1.5-1 .8a1.6 1.6 0 0 0-.5 1.1v.5l1.8 1.7 1.9 1.7 2.1 1.6 2.1 1.3 1.8.6 2 .6 1.9.6 1.7.9a9.3 9.3 0 0 1 1.3 1.5l1.1 1.5a17.1 17.1 0 0 0 1.1 1.4 4.7 4.7 0 0 0 1.5 1.3 3.8 3.8 0 0 0 1.7.6l2.1.7a5.2 5.2 0 0 1 1.8 1 2.1 2.1 0 0 1 .8 1.7.4.4 0 0 0-.1.3v.2l-5.6 1.2a3.5 3.5 0 0 0-1.1.3 2.1 2.1 0 0 1-1.2.3h-.5l-1.2-.7-1.7-1-1.7-1-1.1-.7-.2-.3-.3-.5-.3-.5-.3-.5-2.2-4.5-1.2-.4-1.8-.8-2.2-.9-2.1-1-1.8-.8-1.1-.6-2.8-1.6a13.8 13.8 0 0 1-2.6-2.2 13.9 13.9 0 0 1-2.1-2.7 8.1 8.1 0 0 1-1-3.1l-.6.2-.6.4-.8.6-1.8 1.2-2.1 1.4-2.1 1.4-1.8 1.1-.9.5-6 3.5a24.2 24.2 0 0 0-4.6 3.5 15.4 15.4 0 0 0-3.6 4.4c-.9 1.8-.8 4-2.4 6.7v.6c-.1.2 0 .4 0 .5v.5a10.5 10.5 0 0 0 1.1 4.4 8.5 8.5 0 0 0 4.8 4l2.6 1a4.4 4.4 0 0 1 1.9 1 4.5 4.5 0 0 1 .9 2h-13.3l-.2-.4c-.1-.2-.2-.1-.4-.2h-.5l-.6-.4a2.6 2.6 0 0 1-1.2-1.5 7.9 7.9 0 0 1-.5-2.2 9 9 0 0 1 .2-2.3c0-.8.3-1.5.3-2.1v-1.5a6.6 6.6 0 0 1 .2-1.7 18.1 18.1 0 0 0 .6-2.7c.3-1 .5-2.1.8-3.2s.5-2.2.8-3.2.5-1.9.7-2.6l.4-1.8a9.3 9.3 0 0 1 .7-2 8.2 8.2 0 0 1 .9-1.9 15.4 15.4 0 0 0 4.6-2.6 32.7 32.7 0 0 0 3.2-3.3l3-3.5a17 17 0 0 1 3.4-3.1l1.5-.7 2-.8 2.3-.9 2.2-1.2a7 7 0 0 0 1.6-1.3 2.5 2.5 0 0 0 .6-1.6v-1.3a1.7 1.7 0 0 0-.6-1.2l-.8-.3-1.2-.5-1.2-.6-.8-.3a7.3 7.3 0 0 1-2-1.3l-2.7-1.8a25.6 25.6 0 0 0-2.5-1.6 3.4 3.4 0 0 0-1.8-.6h-7.9c-6 0-11.9-.1-17.7.1S78 134 72 134q-6.6 0-12.9-.3c-4.2-.3-8.4-.7-12.5-1.4a84.2 84.2 0 0 1-12-3 67.1 67.1 0 0 1-11.9-5l-1.4-.8-1.6-1-1.3-1.3a2.4 2.4 0 0 1-.5-1.6 9.5 9.5 0 0 1 2.1.4l2.4 1 2.2 1 1.5.6 4.7 1.7 5.1 1.4a45.9 45.9 0 0 0 5.1 1 28.5 28.5 0 0 0 4.9.4h25.4l1.3-.2 2.5-.3 3.4-.5 3.6-.6 3.5-.7 2.7-.5 6.9-1.4 7.4-1.6c2.5-.6 4.9-1.3 7.3-2.1a50.4 50.4 0 0 0 6.6-2.8l3.9-1.8 3.8-1.6 4-1.4c1.3-.3 2.7-.7 4.2-.9h2.8l1.8-.2h1l1.9-.4 3.4-.7 4.1-.9 4-.9c1.3-.3 2.4-1 3.4-1.2s1.5-.7 1.9-.7h6.5c2.8 0 5.4.5 8 .7s5.2.5 7.9.5a10 10 0 0 0 5-1.2 19.3 19.3 0 0 0 4.6-3.5 39.2 39.2 0 0 0 3.9-5q1.8-2.9 3.3-5.7c.9-1.9 1.8-3.8 2.5-5.6l1.8-4.8c.4-1.2.8-2.4 1.1-3.5s.7-2.2 1-3.2l1.2-2.6a8.6 8.6 0 0 1 1.8-2 7.2 7.2 0 0 1 2.7-1.6 12.7 12.7 0 0 1 3.8-.8h3.1c.7 1.7 1.7.9 2.9 1.3a19.6 19.6 0 0 1 3.6 1.6 10.9 10.9 0 0 1 3 1.8 3.1 3.1 0 0 1 1.3 2.2 2 2 0 0 1-.5 1.4z"/></symbol><symbol id="velociraptor" viewBox="0 0 256 256"><path d="M127.7.5a127.7 127.7 0 1 0 127.6 127.7A127.7 127.7 0 0 0 127.7.5zM238.1 117h-7.4c-3.1 0-6.2-.1-9.2-.4l-9.1-1-9.2-.9c-3-.3-6.1-.5-9.2-.5a130 130 0 0 0-16.4 1 77.2 77.2 0 0 0-15.8 3.7L131.1 130a2.4 2.4 0 0 0-1.2 1.6 17.3 17.3 0 0 0-.8 2.7c-.3 1-.5 1.9-.7 2.9a5.3 5.3 0 0 1-.6 1.9 3.1 3.1 0 0 0 1.4 1.4l2.5 1.1 2.9 1.2a14.3 14.3 0 0 1 2.7 1.5 6.3 6.3 0 0 1 2.1 1.8 3.8 3.8 0 0 1 .8 2.5 1.6 1.6 0 0 1-.4 1.2 6 6 0 0 1-1.3.9l-1.6.7-1.6.8a4.3 4.3 0 0 0-1.2 1.1 2.5 2.5 0 0 0-.5 1.5 3.7 3.7 0 0 0 .8 2.5 7.4 7.4 0 0 0 1.9 1.6l2.4 1.4a7.2 7.2 0 0 1 2.2 1.7 17.5 17.5 0 0 1 2 3.5 23.2 23.2 0 0 1 1.3 3.7c.3 1.2.6 2.5.8 3.8s.1 2.7.2 4l1.3 1.3v7.2h.9l1 .2 1 .2.6.2a5.5 5.5 0 0 0 .1.9 5.1 5.1 0 0 1-.2.9 2.8 2.8 0 0 1-.3 1.3 7 7 0 0 1-.6.9 1.1 1.1 0 0 1-.9.3h-5.2c-.2 0-.6-.5-1-.8l-1.5-.8-1.6-.8c-.5-.3-.9-.9-1.2-.9h-6.1a5.2 5.2 0 0 1 .6-3 4.1 4.1 0 0 1 1.7-1.5 6.5 6.5 0 0 1 2.1-.7l2.1-.3 1.6-.6a1.5 1.5 0 0 0 .7-1.4v-.3a.4.4 0 0 0-.1-.3 8.3 8.3 0 0 0-.8-1.8c-.4-.8-.8-1.6-1.3-2.4l-1.5-2.5a10 10 0 0 0-1.6-1.8 3.6 3.6 0 0 0-1.3-.8l-1.8-1a7.8 7.8 0 0 1-1.8-1.1 2.1 2.1 0 0 1-1-1.1c-.3-.8-.6-1.8-.9-2.9a30.1 30.1 0 0 0-1.1-3.2 6.9 6.9 0 0 0-1.7-2.6 4 4 0 0 0-2.9-1.1 24.9 24.9 0 0 0-6.1.8 23.5 23.5 0 0 0-5.7 2.3 24.5 24.5 0 0 0-5 3.4 21.7 21.7 0 0 0-4 4.6c-.1.2-.2.2-.3.2h-.2c-.1 0-.1-.1-.1-.2s-.2-.1-.2-.3l-.2-.6a1.1 1.1 0 0 0-.2-.6c0-.2-.1-.3-.1-.4h-.3a1.5 1.5 0 0 0-1.1.4l-.8 1.2-.9 1.3a2.1 2.1 0 0 1-.8 1 5.2 5.2 0 0 1-.7-1.6v-1.7a9.2 9.2 0 0 1 .4-2.9c.2-.9.5-1.8.8-2.8a20 20 0 0 0 1-2.6c.2-.9.4-2.7.4-2.7h-4.9c0-1.7.2-1.8.6-2.4a6.5 6.5 0 0 1 1.7-1.6 6.7 6.7 0 0 1 2.1-.9l2.1-.3a15.1 15.1 0 0 1 3 .2l3 .5 2.9.4a14.2 14.2 0 0 0 2.9.2h2.3a2.4 2.4 0 0 0-1.7-1.4l-2.5-.5-2.7-.2c-.9 0-1.6.2-2.2-.2l-3.9-2.2h-.3a17.1 17.1 0 0 0-3.2 0 10.8 10.8 0 0 1-3.1.2 7.8 7.8 0 0 1-3.1-.7l-2.6-1.4-2.6-1.4a5.5 5.5 0 0 0-2.9-.6v6.1l1.6-.2 1-.3.9-.5c.3-.2.3-.4.8-.7h.7v2.8l2-.7c0 .1.2.3.2.5a4.3 4.3 0 0 0 .1.5 5.6 5.6 0 0 1-1.3 3.9 19 19 0 0 1-3.3 2.9 29.2 29.2 0 0 0-4.6-1.3l-4.8-.6v-7.9l-1.7.6-2.1 1a10.5 10.5 0 0 0-1.9 1.2c-.5.4-1 .8-1 1.2v6.9a9.6 9.6 0 0 0 3-.3l1.9-.6 1.2-.6a2.4 2.4 0 0 1 1.2-.3h.4a2.6 2.6 0 0 0 .3.7c.1.4.3.8.4 1.3a6.5 6.5 0 0 1 .4 1.3 5.1 5.1 0 0 1 .2.9 4.3 4.3 0 0 1-.4 1.9 7.2 7.2 0 0 1-1.1 1.9 4.7 4.7 0 0 1-1.5 1.3 3.3 3.3 0 0 1-1.9.6h-1l-3-.4a22.1 22.1 0 0 1-3.7-.8 11.9 11.9 0 0 1-3.2-1.2 2.5 2.5 0 0 1-1.5-2.1v-12c0-.2.4-.4.9-.9a20.2 20.2 0 0 0 1.9-1.6l2.4-2.2a18.8 18.8 0 0 0 2.4-2.5 21.1 21.1 0 0 0 1.8-2.7 5.4 5.4 0 0 0 .7-2.6 4.3 4.3 0 0 0-1.1-2.8 16.4 16.4 0 0 0-2.9-2 18.3 18.3 0 0 0-3.2-1.4l-2.6-.9-1.3-9.2a16.8 16.8 0 0 0-.6-2.7 10.9 10.9 0 0 0-1.1-2.7 7.9 7.9 0 0 0-1.8-2.2 4 4 0 0 0-2.7-.9 12.5 12.5 0 0 0-3.6.5 13 13 0 0 0-3.2 1.5l-1.7 1-2.5 1.5-3 1.8-3 1.7-2.5 1.7c-.8.4-1.4 1.1-1.7 1.1h-1l-1.7-.2-2.1-.4a3.1 3.1 0 0 1-1.4-.7c-.5-.4-.4-.9-.4-1.4v-1.9c0-.6-.2-.9.1-.9h1.6s-.1-.1 0-.4.1-.5.1-.8.1-.6.2-.9a.4.4 0 0 0 0-.5l-.8-.8-.9-.5-.7-.7a1.7 1.7 0 0 1-.3-1.2 2.7 2.7 0 0 1 .3-1.2 7.5 7.5 0 0 1 .7-1.2c.3-.3.2-.6.6-.8a1.8 1.8 0 0 1 .8-.4v.8a4.7 4.7 0 0 0 .6 1.5c.1.5.6.7 1.2.7a1.4 1.4 0 0 0 1.1-.5 4.8 4.8 0 0 0 .9-1.1 11.1 11.1 0 0 0 .7-1.6c.1-.5.2.2.2-1.4H20.8a1.4 1.4 0 0 1-.9-.5l-1-.7-1-.8a1.8 1.8 0 0 1-.4-1 4.6 4.6 0 0 1 1.1-3.2 6.8 6.8 0 0 1 2.6-1.8 17 17 0 0 1 3.2-1l2.9-.9 2.2-.9 3.4-1.5 3.3-1.6a8.4 8.4 0 0 1 2.2-1.1h13.7a7.6 7.6 0 0 1 3.9 1 12.6 12.6 0 0 1 3.1 2.5 29.1 29.1 0 0 1 2.6 3.3 27.5 27.5 0 0 0 2.3 3.3 14.9 14.9 0 0 0 2.2 2.6 3.6 3.6 0 0 0 2.5 1c.4 0 .7-.1.8-.4a1.3 1.3 0 0 1 .9-.4 4 4 0 0 1 1.5.3l1.5.8 1.6.7a4 4 0 0 0 1.5.3l4.1-.2 4.2-.5 4.1-.5 4.1-.2a56.4 56.4 0 0 1 7.3.4 39.9 39.9 0 0 1 7.3 1.6 53.8 53.8 0 0 1 5.1 2l5.1 2.2a35 35 0 0 0 5.2 1.7 20.2 20.2 0 0 0 5.5.7h2.6l12.9-2.7c4.3-.9 8.6-1.6 12.9-2.3s8.6-1.2 13-1.6 8.7-.5 13.1-.5h8.9c1.9.1 3.6.7 5.1.9l36.5 7.3h11.8c-.8 0-1.8 1-3.1 1.4a28.2 28.2 0 0 1-4.1.1z"/></symbol></svg>